<?xml version="1.0" encoding="utf-8"?>
<!-- Generator: Adobe Illustrator 24.0.1, SVG Export Plug-In . SVG Version: 6.00 Build 0)  -->
<svg version="1.1" id="Layer_1" xmlns="http://www.w3.org/2000/svg" xmlns:xlink="http://www.w3.org/1999/xlink" x="0px" y="0px"
	 viewBox="0 0 1984.2 3401.6" style="enable-background:new 0 0 1984.2 3401.6;" xml:space="preserve">
<style type="text/css">
	.st0{fill:#000080;}
	.st1{stroke:#000000;stroke-miterlimit:10;}
</style>
<path class="st0" d="M1368.4,1999l0-369.3L1049,1814.4L1368.4,1999 M505.5,634.3L187,818.2l0,0L505.5,1002L505.5,634.3L505.5,634.3z
	 M580.8,1002l318.5-183.8L580.8,634.3h0V1002z M505.5,2128.7L187,2312.6l318.5,183.9L505.5,2128.7 M1799.8,753V385.1L1481,568.9
	L1799.8,753z M1405.9,525.6L1762.1,320L1406,114.4L1049.9,320l0,0L1405.9,525.6L1405.9,525.6 M1368.1,1132.6l-318.3,183.8
	l318.6,183.9L1368.1,1132.6z M1443.7,1002l318.4-183.8l-318.4-183.8L1443.7,1002z M580.8,1500.2l787.3-454.6l-0.2-455.1
	l-355.7-205.4l0,0l0,454.7L580.8,1089L580.8,1500.2z M898.8,1814.2l-318-183.6l0,367.7 M936.2,1748.9L936.2,1748.9L936,1382
	l-317.6,183.4L936.2,1748.9z M936.6,2291.1l-0.3-411.5l-355.5,205.7l0,411.2l0,0L936.6,2291.1z M936.7,2378l-318.2,183.7l0,0
	l318.5,183.9l0,0L936.7,2378z M1012.2,2377.8V2789v454.7l356.1-205.6v-454.7L1012.2,2377.8z M1330.7,2063.5l-318.5-183.9l0,0v367.7
	L1330.7,2063.5 M505.5,1543.6v-454.7h0L149.4,883.4h0v433H74.1V796.4l469-270.8L936.9,753V298.3L1406,27.5l469.1,270.8v1537.9
	l-394.2,227.6l396.9,228.7l-37.7,65.2l-396.7-229.1l0.2,952.9L937,3374.1v-541.6L36.5,2312.6l469-270.8v-411.3l-396.5,229
	l-37.6-65.2L505.5,1543.6 M1443.6,1998.5l356.1-205.8V883.4L1443.7,1089L1443.6,1998.5L1443.6,1998.5z M1368.8,2128.8l-318.9,183.8
	l318.5,183.9v-367.7H1368.8z M1012.2,1748.5L1012.2,1748.5l317-183.5l0.1,0.2l-317.1-183.7L1012.2,1748.5L1012.2,1748.5z
	 M580.8,1998.2l318-184.1"/>
<rect x="170" y="210.5" class="st1" width="48.6" height="48.6"/>
<rect x="282.5" y="210.5" class="st1" width="48.6" height="48.6"/>
<rect x="388.5" y="210.5" class="st1" width="48.6" height="48.6"/>
<rect x="499.9" y="210.5" class="st1" width="48.6" height="48.6"/>
<rect x="607.1" y="210.5" class="st1" width="48.6" height="48.6"/>
<rect x="718.4" y="210.5" class="st1" width="48.6" height="48.6"/>
<rect x="162.8" y="310.9" class="st1" width="63" height="63"/>
<rect x="275.3" y="310.9" class="st1" width="63" height="63"/>
<rect x="381.3" y="310.9" class="st1" width="63" height="63"/>
<rect x="492.6" y="310.9" class="st1" width="63" height="63"/>
<rect x="599.9" y="310.9" class="st1" width="63" height="63"/>
<rect x="711.2" y="310.9" class="st1" width="63" height="63"/>
</svg>
