<?xml version="1.0" encoding="utf-8"?>
<!-- Generator: Adobe Illustrator 24.0.1, SVG Export Plug-In . SVG Version: 6.00 Build 0)  -->
<svg version="1.1" id="Layer_1" xmlns="http://www.w3.org/2000/svg" xmlns:xlink="http://www.w3.org/1999/xlink" x="0px" y="0px"
	 viewBox="0 0 1984.25 3401.57" style="enable-background:new 0 0 1984.25 3401.57;" xml:space="preserve">
<style type="text/css">
	.st0{fill:#000080;}
</style>
<path class="st0" d="M1368.36,1999.02l-0.03-369.35l-319.31,184.72L1368.36,1999.02 M505.53,634.26L187.04,818.15l0,0l318.48,183.87
	L505.53,634.26L505.53,634.26z M580.81,1002L899.3,818.15L580.8,634.26h0.01V1002z M505.52,2128.73L187.04,2312.6l318.48,183.89
	L505.52,2128.73 M1799.78,752.95V385.14l-318.8,183.75L1799.78,752.95z M1405.93,525.56l356.19-205.57L1406,114.38l-356.11,205.61
	l0.01,0.02L1405.93,525.56L1405.93,525.56 M1368.13,1132.59l-318.33,183.81l318.56,183.95L1368.13,1132.59z M1443.71,1001.98
	l318.41-183.84l-318.38-183.83L1443.71,1001.98z M580.78,1500.19l787.35-454.58l-0.23-455.09l-355.69-205.37l0,0l0.01,454.73
	l-431.42,249.08L580.78,1500.19z M898.81,1814.18l-318.03-183.62l0.03,367.67 M936.24,1748.86L936.24,1748.86L936,1381.96
	l-317.59,183.39L936.24,1748.86z M936.6,2291.06l-0.27-411.47l-355.52,205.67l-0.03,411.24l0,0L936.6,2291.06z M936.66,2377.97
	l-318.21,183.72l0,0l318.45,183.86l0,0L936.66,2377.97z M1012.23,2377.8v411.24v454.68l356.14-205.61v-454.68
	C1368.37,2583.43,1012.23,2377.8,1012.23,2377.8z M1330.7,2063.53l-318.47-183.87l0,0v367.74L1330.7,2063.53 M505.52,1543.64v-454.7
	h-0.02l-356.1-205.59l-0.01,0v432.95H74.11V796.41l469.05-270.8l393.78,227.34V298.26L1406,27.46l469.05,270.8v1537.92
	l-394.15,227.57l396.91,228.71l-37.65,65.21l-396.72-229.05l0.2,952.94l-506.69,292.55V2832.5L36.47,2312.6l469.05-270.79v-411.26
	L109,1859.52l-37.64-65.21L505.52,1543.64 M1443.64,1998.53l356.14-205.8V883.35l-356.07,205.6L1443.64,1998.53L1443.64,1998.53z
	 M1368.79,2128.76l-318.91,183.84c0,0,318.49,183.88,318.49,183.88v-367.72H1368.79z M1012.23,1748.53L1012.23,1748.53l317.04-183.5
	l0.09,0.16l-317.14-183.7V1748.53z M580.81,1998.23l318-184.05"/>
</svg>
